<svg version="1.1" id="Layer_1" xmlns="http://www.w3.org/2000/svg" xmlns:xlink="http://www.w3.org/1999/xlink" x="0px" y="0px"
	 width="100%" viewBox="0 0 496 224" enable-background="new 0 0 496 224" xml:space="preserve">
<path fill="#000000" opacity="1.000000" stroke="none" 
	d="
M360.368927,144.663208 
	C372.344482,158.715515 378.235809,174.126648 373.294189,193.007034 
	C377.922363,191.266571 380.909821,188.200790 384.316345,185.643250 
	C385.672821,190.578568 380.821136,198.625717 372.875122,205.067673 
	C369.986115,204.022995 371.209778,201.594101 371.144775,199.536057 
	C366.990997,205.736588 362.537384,206.971268 352.433502,204.424896 
	C361.535522,194.392517 364.962158,182.937668 361.860138,169.841019 
	C359.008881,157.803101 351.569061,148.849213 342.343079,140.953262 
	C347.829559,151.890945 352.616028,162.838501 348.611877,175.452652 
	C344.648438,187.938629 335.396301,195.247681 324.156219,201.731064 
	C323.747223,198.692459 325.748077,197.942154 326.806549,196.716049 
	C332.874756,189.686752 336.718689,182.106201 333.229340,172.542542 
	C330.690002,165.582581 327.370605,163.721268 320.324585,165.429489 
	C318.548126,165.860168 316.825958,166.526382 315.041412,166.910446 
	C309.075592,168.194351 307.463989,167.004700 306.600189,160.877014 
	C306.485077,160.060349 306.461792,159.081604 305.998932,158.487030 
	C302.758423,154.324585 300.278717,150.134323 302.509796,144.491379 
	C303.032898,143.168457 301.060455,142.608887 299.724548,142.270966 
	C296.147675,141.366150 296.008484,138.964401 297.140839,136.072159 
	C299.801422,129.276474 300.742798,119.505089 299.839935,112.382347 
	C298.363831,100.737167 301.801422,90.676361 310.217529,82.414864 
	C311.379913,81.273849 312.563843,80.033638 314.541870,79.946846 
	C314.722534,80.354645 315.136292,80.821259 315.051544,81.164932 
	C312.216644,92.659668 315.831085,102.513786 322.851013,111.421570 
	C327.408356,117.204521 332.703827,122.211449 338.922333,126.267227 
	C346.763458,131.381271 353.851868,137.429062 360.368927,144.663208 
z"/>
<path fill="#000000" opacity="1.000000" stroke="none" 
	d="
M181.233215,165.533905 
	C179.386292,167.318787 177.696320,168.842026 175.277451,167.849213 
	C172.605881,166.752686 171.834976,164.303741 171.744797,161.725571 
	C171.605682,157.748215 171.708176,153.762405 171.708176,149.294861 
	C168.426910,150.276230 166.450958,151.893661 165.294662,154.642090 
	C163.995941,157.729050 162.298706,160.579483 159.956619,163.024521 
	C154.478424,168.743469 149.453827,167.734299 146.864487,160.381012 
	C146.608582,159.654297 146.834045,158.658112 145.536865,158.206207 
	C144.090164,160.902176 142.816711,163.765961 141.101791,166.335052 
	C139.336548,168.979553 137.161255,171.516190 133.497009,171.203262 
	C129.721725,170.880844 129.008636,167.768036 128.172546,164.839310 
	C128.007965,164.262833 127.594521,163.757385 127.259666,163.153992 
	C111.713799,178.823730 111.524765,178.884140 98.376259,172.287384 
	C95.959534,179.201569 96.407120,186.320358 96.211243,193.395920 
	C96.145683,195.764191 97.859398,199.824844 94.197525,200.076263 
	C90.228470,200.348785 91.193428,195.793427 90.953751,193.443802 
	C89.396263,178.175064 89.907082,162.925735 91.484917,147.637650 
	C93.328377,129.775894 96.148766,112.093529 99.681404,94.513687 
	C100.890938,88.494568 102.240906,82.455017 104.990273,76.891853 
	C106.401031,74.037262 108.038376,70.766937 111.933197,71.668793 
	C115.643333,72.527893 116.096657,75.985146 116.307625,79.253998 
	C116.755447,86.193024 115.145912,92.824898 113.180321,99.374886 
	C109.581024,111.368874 104.484352,122.739311 99.019150,133.995346 
	C95.248161,141.762009 95.990509,150.434845 95.497108,158.853149 
	C97.615288,153.090637 99.552040,147.282425 102.523056,141.936935 
	C104.010254,139.261154 105.435959,135.356705 109.197838,136.294205 
	C113.426277,137.348007 112.583946,141.631287 112.219185,144.802307 
	C111.442680,151.552841 108.544907,157.524612 104.573196,163.011307 
	C103.254982,164.832336 101.134308,166.831299 103.444717,169.144348 
	C105.666306,171.368469 108.516998,172.493347 111.646835,171.025803 
	C114.232979,169.813202 116.450455,167.986649 118.200066,165.720047 
	C123.709106,158.583145 128.794067,151.265182 130.903885,142.211655 
	C132.034622,137.359558 133.941177,132.629837 137.599030,128.991348 
	C140.816528,125.790855 144.708710,124.631859 149.033295,126.494621 
	C153.049942,128.224747 154.529984,131.603119 154.348450,135.808716 
	C154.291962,137.117447 154.362671,138.727295 152.541519,138.848175 
	C150.906693,138.956680 150.197571,137.604691 150.018326,136.248856 
	C149.663818,133.567047 148.877579,131.148163 145.812714,130.891174 
	C142.822144,130.640396 140.883957,132.583771 139.505707,135.038467 
	C135.014816,143.036804 133.113800,151.767410 132.369400,160.801529 
	C132.232025,162.468704 132.236191,164.446457 134.198730,165.020660 
	C136.583969,165.718567 137.212357,163.523529 138.067184,161.973587 
	C140.904526,156.828995 142.183929,151.091309 144.235565,145.646851 
	C144.862259,143.983795 145.246964,141.690414 147.655045,142.054642 
	C149.882599,142.391586 150.097748,144.571930 150.194977,146.398514 
	C150.406937,150.379578 150.111816,154.402588 151.359665,158.281113 
	C152.502930,161.834641 154.728745,162.608154 156.421082,159.544281 
	C160.260620,152.593033 165.157471,146.608246 170.534607,140.861755 
	C172.170364,139.113632 172.836136,136.464417 173.974976,134.242691 
	C174.863800,132.508698 175.538498,129.981445 178.146988,131.088486 
	C180.379898,132.036133 179.363922,134.257736 178.834839,135.936386 
	C176.657669,142.843826 175.759003,149.895752 176.236099,157.117249 
	C176.320541,158.395309 176.583954,159.661560 176.827789,161.376984 
	C179.867889,160.082199 180.106247,157.351822 181.213287,155.328094 
	C182.168274,153.582321 182.767014,151.645462 183.648285,149.854584 
	C184.618271,147.883377 184.786942,144.498001 187.779190,145.079971 
	C191.122757,145.730270 189.274048,148.895844 189.334976,150.992599 
	C189.446198,154.820862 189.315903,158.655518 189.355713,162.486786 
	C189.374344,164.281067 189.193329,166.225891 191.251328,167.185883 
	C192.647614,166.970490 193.341904,165.948685 193.759369,164.894318 
	C197.591431,155.215546 202.410324,145.811142 201.723190,134.900284 
	C201.483551,131.094788 201.323517,127.213402 202.859192,123.561943 
	C203.667328,121.640404 204.884918,119.750038 207.202469,120.139595 
	C209.839447,120.582855 210.421600,122.940002 210.114075,125.197327 
	C209.576126,129.145981 209.050491,133.148407 207.920303,136.950134 
	C206.704300,141.040527 208.586716,143.813629 211.121994,146.264053 
	C214.160095,149.200455 218.423416,147.973328 219.744995,143.923431 
	C221.503937,138.533234 223.001801,133.051788 227.209244,128.877670 
	C230.209320,125.901344 233.814667,124.888306 237.755264,126.141441 
	C241.611465,127.367744 243.540298,130.514267 244.132721,134.383896 
	C244.404037,136.156128 244.613373,138.463852 242.194901,138.839417 
	C239.923141,139.192184 239.956131,137.072174 239.549820,135.431320 
	C238.442642,130.960159 235.397003,129.673355 231.835724,132.013489 
	C225.568466,136.131744 220.058289,158.319107 223.690994,165.376450 
	C226.864243,164.861633 227.647629,162.050537 228.605515,159.745712 
	C230.455795,155.293625 231.933807,150.686890 233.567245,146.144638 
	C234.230865,144.299210 234.551880,141.829041 237.141464,142.060242 
	C239.626007,142.282089 238.905319,144.768524 239.442200,146.412659 
	C241.014801,151.228455 238.841370,156.851440 242.447235,161.236526 
	C247.801682,159.201706 251.650162,152.223053 251.596054,144.629044 
	C249.989029,143.594269 245.790421,146.064941 246.342422,141.900772 
	C246.722931,139.030350 248.946808,136.623764 252.071350,136.379990 
	C255.617050,136.103378 256.912415,138.721695 257.281097,141.822556 
	C257.762451,145.871231 256.384552,149.730804 255.968689,153.689865 
	C255.847672,154.842148 255.395340,155.979248 255.402771,157.121292 
	C255.417343,159.360199 254.567093,162.322449 257.471924,163.160233 
	C259.968079,163.880127 261.123871,161.262238 262.311768,159.558380 
	C264.499603,156.420288 266.456879,153.122269 268.549011,149.916183 
	C269.303284,148.760315 270.251556,147.705215 271.813995,148.462448 
	C273.284485,149.175110 273.516541,150.501404 272.841675,151.851654 
	C270.309723,156.917358 267.881927,162.107559 263.582977,165.967758 
	C257.972290,171.005814 254.485504,170.262939 250.225800,163.407806 
	C241.649765,168.484451 240.083450,168.045700 235.499832,159.251968 
	C233.700424,159.230606 233.675339,160.827499 233.067673,161.911423 
	C232.010956,163.796341 231.059128,165.766937 229.785324,167.496918 
	C227.925888,170.022171 225.443039,171.981613 222.130951,171.032761 
	C218.763000,170.067902 217.876938,167.023849 217.734818,163.899261 
	C217.583893,160.581146 217.700897,157.250854 217.700897,153.585526 
	C213.102127,153.056595 208.915298,151.758575 205.078064,148.291367 
	C202.994659,153.826233 201.087860,158.908249 199.164627,163.984070 
	C198.869995,164.761703 198.553894,165.540421 198.154953,166.267761 
	C196.242157,169.755081 194.647644,174.168686 189.595673,173.154343 
	C184.826569,172.196793 184.914047,167.771255 184.595612,163.941040 
	C184.557739,163.485748 184.388657,163.041367 184.178879,162.170593 
	C183.128220,163.373840 182.299805,164.322571 181.233215,165.533905 
M101.187012,113.101570 
	C100.932007,114.704010 100.676994,116.306450 100.421989,117.908890 
	C111.020325,94.208351 113.254951,85.024887 110.432487,76.427673 
	C104.722198,88.272926 102.742050,100.211494 101.187012,113.101570 
z"/>
<path fill="#000000" opacity="1.000000" stroke="none" 
	d="
M358.818542,117.784012 
	C359.967163,119.592323 361.633362,121.011551 362.272430,123.215797 
	C364.254211,130.051285 364.315125,130.033615 370.543640,134.204514 
	C370.677002,132.263855 368.529419,131.034546 369.193634,129.146576 
	C374.855469,129.292007 382.524597,134.522766 382.873230,139.723846 
	C383.216797,144.849701 385.714722,148.333496 388.559570,152.014297 
	C389.970367,153.839661 390.982788,155.972916 392.880646,159.145859 
	C391.867737,153.090820 388.909546,148.174896 392.015808,143.112915 
	C398.116791,149.959274 400.554230,158.014908 396.268677,164.219940 
	C395.362915,165.531311 395.053070,167.038666 395.412384,168.517105 
	C396.691315,173.779648 396.514099,179.034485 395.119476,185.315369 
	C398.888489,181.314865 400.277405,176.026443 406.451385,175.561829 
	C404.894470,180.313019 403.565063,184.677032 401.997650,188.953796 
	C401.564423,190.135880 400.639618,191.544571 399.571106,192.020828 
	C392.745758,195.063049 386.611542,198.982605 381.541962,204.560593 
	C380.539307,205.663757 378.799225,205.579147 377.286713,204.803574 
	C376.817719,202.887619 378.384064,202.170563 379.465790,201.331451 
	C382.142883,199.254822 384.132019,196.590836 386.094543,193.907852 
	C388.974335,189.970840 390.852509,186.561600 385.874451,182.111633 
	C381.381226,178.095062 381.705872,171.260376 385.041809,162.117065 
	C392.084808,166.819839 387.771881,174.835297 391.011414,181.942535 
	C392.825562,172.040482 390.398651,164.475189 385.915222,157.348404 
	C385.338776,156.432053 384.305420,156.157547 383.272217,156.222443 
	C375.185455,156.730270 372.010162,150.567001 367.615448,144.946136 
	C373.262543,143.811615 376.245758,147.538422 379.961395,149.598190 
	C375.508728,145.731186 372.790100,139.621445 365.057159,140.329575 
	C360.694763,140.729019 356.926483,135.929733 356.257690,131.646271 
	C355.767853,128.508972 352.916443,127.158340 350.135406,127.493355 
	C344.245636,128.202881 340.793488,125.087097 337.652344,120.691673 
	C338.359894,120.051613 339.013428,119.460419 339.527252,118.995613 
	C335.623505,112.157951 324.507812,116.227539 322.425903,106.693253 
	C323.007324,105.012627 325.171265,107.482315 326.155518,105.750504 
	C325.318817,99.867722 315.054871,100.347336 317.016174,92.332535 
	C318.019897,90.914673 319.160278,93.565819 320.527222,92.440933 
	C319.894257,88.145401 319.251129,83.781029 318.454163,78.372726 
	C321.542114,80.991898 322.333344,78.760864 323.697266,77.429337 
	C330.367676,70.917236 338.654022,68.138885 347.747406,67.432251 
	C348.600861,67.365921 349.782196,67.411293 350.454193,69.055168 
	C344.564819,73.510643 335.506653,69.040947 330.495300,75.929199 
	C331.141815,77.036461 332.575073,75.257225 333.634430,76.837952 
	C332.875580,79.490501 330.362701,80.848450 327.895996,80.804214 
	C323.920349,80.732933 323.499634,83.207565 323.356171,85.895317 
	C323.113281,90.445244 324.381744,94.625900 327.398621,98.793449 
	C327.679474,94.438057 324.044983,90.859993 326.576843,86.814621 
	C331.373688,90.846375 333.019135,95.233131 331.122070,100.228958 
	C330.181274,102.706474 330.639008,104.348724 332.394470,105.988914 
	C334.815308,108.250793 337.212860,110.537582 339.963409,112.597214 
	C338.101257,108.962822 333.809418,106.496033 334.721771,100.793434 
	C339.442139,103.695610 344.746613,106.012833 344.896515,111.596184 
	C345.068481,118.000923 349.127777,119.842476 354.093109,122.645851 
	C352.728302,120.259300 351.508392,118.674545 350.873322,116.882530 
	C349.998413,114.413742 351.206635,113.846466 353.984314,115.090179 
	C355.978577,116.160591 357.398560,116.972305 358.818542,117.784012 
z"/>
<path fill="#000000" opacity="1.000000" stroke="none" 
	d="
M359.158813,117.941315 
	C357.398560,116.972305 355.978577,116.160591 354.289490,115.180519 
	C349.564148,109.445625 342.912445,105.953568 339.385406,99.502960 
	C338.553101,97.980820 336.872375,96.799744 337.456451,94.742371 
	C338.563416,94.321754 339.092804,95.029182 339.609650,95.637177 
	C351.889893,110.083946 368.221191,118.119682 385.442749,124.853699 
	C395.818878,128.911026 406.525696,132.227692 416.231873,137.869141 
	C423.783875,142.258530 429.938904,147.863358 432.327240,156.700958 
	C435.121552,167.040680 431.265869,175.722076 425.328918,183.704132 
	C420.371368,190.369385 414.237000,195.829590 405.948303,200.563446 
	C407.242096,196.141083 410.021423,194.144684 411.817902,191.548248 
	C416.395172,184.932678 420.837433,178.230316 421.607239,169.978897 
	C422.820251,156.976395 415.058411,148.878769 405.539459,142.019897 
	C399.985168,138.017776 393.796936,135.062881 387.453827,132.489105 
	C377.700897,128.531723 368.544006,123.426163 359.158813,117.941315 
z"/>
<path fill="#000000" opacity="1.000000" stroke="none" 
	d="
M378.348816,82.295059 
	C372.455048,82.327377 366.943665,81.882408 361.655457,83.962044 
	C355.630432,86.331444 354.324524,90.036270 358.272919,95.146515 
	C363.938934,102.479942 372.038544,106.572456 380.089752,110.619194 
	C389.635651,115.417206 399.810883,118.674484 409.717224,122.593880 
	C419.104126,126.307770 427.694672,131.312042 434.208405,139.307022 
	C439.052704,145.252930 440.287415,152.000183 438.834290,160.050247 
	C436.870056,157.557495 437.725525,154.968796 436.946930,152.786026 
	C433.266235,142.467133 425.482239,136.193207 416.183685,131.542450 
	C403.191925,125.044495 389.012756,121.533348 375.681122,115.856651 
	C367.393402,112.327660 359.230255,108.602371 351.737183,103.523750 
	C348.228241,101.145477 345.149414,98.391357 343.112335,94.661026 
	C339.284241,87.650864 342.026245,80.971581 349.516144,78.205284 
	C356.619751,75.581665 363.677612,77.046616 370.702545,78.183502 
	C374.394379,78.780975 378.308685,78.962059 381.768524,81.261581 
	C381.050262,82.720047 379.782379,82.178741 378.348816,82.295059 
z"/>
<path fill="#000000" opacity="1.000000" stroke="none" 
	d="
M195.244232,200.159241 
	C192.112564,202.420609 189.383469,204.913757 185.266083,203.575653 
	C185.264175,200.509323 188.456085,201.386276 189.365723,199.713562 
	C183.716385,195.887863 184.025360,188.563187 190.406052,181.717560 
	C193.824081,185.093079 197.444870,185.285309 200.888290,181.181519 
	C202.537888,182.910492 203.314560,185.072113 206.350662,185.421783 
	C201.527313,189.747131 208.700012,193.341049 205.737350,197.734787 
	C204.841614,198.895721 202.787567,197.754837 201.424271,198.900986 
	C202.004715,201.584396 206.028290,199.998093 206.452423,203.261108 
	C201.806213,205.585693 199.062881,201.331802 195.244232,200.159241 
z"/>
<path fill="#000000" opacity="1.000000" stroke="none" 
	d="
M241.091003,186.530487 
	C241.153503,185.083252 241.496902,184.166779 242.644821,183.880737 
	C248.807541,182.345108 254.997498,182.543900 261.150696,183.841904 
	C263.374023,184.310913 263.521027,186.095444 262.520386,187.720245 
	C261.857086,188.797287 260.624207,189.523529 259.541168,190.501801 
	C260.553711,193.113770 261.077637,195.649338 260.710815,198.024170 
	C259.097229,199.714920 256.955902,198.749329 255.117142,199.880188 
	C257.477661,201.739761 260.719238,199.523666 262.573700,201.975891 
	C259.686554,204.618042 245.283951,204.859146 241.191269,202.294708 
	C243.273178,199.241898 246.922134,201.868561 249.410080,200.047409 
	C247.794418,198.135544 244.509903,200.432236 243.472946,197.500351 
	C244.586563,195.094696 247.045822,196.403503 248.854126,195.590042 
	C247.430359,194.620926 245.482925,195.977966 244.232300,194.225098 
	C243.424286,192.852768 245.154526,192.046097 245.370468,190.768707 
	C244.196945,189.232101 241.619949,189.204224 241.091003,186.530487 
z"/>
<path fill="#000000" opacity="1.000000" stroke="none" 
	d="
M276.737000,86.806587 
	C275.434814,88.920021 275.384399,91.320160 272.833832,93.140129 
	C270.618500,86.495758 266.475067,81.706795 259.322601,79.494415 
	C265.912231,76.763206 270.789825,72.885590 273.146851,65.801193 
	C275.853912,72.432648 280.145599,76.859322 287.258484,78.864143 
	C283.776459,82.341888 278.808228,82.401352 276.737000,86.806587 
z"/>
<path fill="#000000" opacity="1.000000" stroke="none" 
	d="
M212.849258,197.046844 
	C215.855911,194.299896 219.521545,192.838165 221.913040,189.701996 
	C222.655701,188.728104 224.070831,188.134171 224.951859,189.251770 
	C227.581360,192.587372 231.752106,193.843002 235.038834,196.735062 
	C233.515457,198.745987 230.684616,199.599304 231.031845,202.643173 
	C231.145004,203.635132 229.866287,204.317856 228.781342,203.978989 
	C225.032761,202.808228 221.257401,203.705933 217.090027,203.957199 
	C217.445160,200.416962 215.014099,198.938324 212.849258,197.046844 
M222.206726,200.687775 
	C223.844742,200.428848 225.815811,201.367554 227.169876,199.172150 
	C225.274307,197.600616 223.066223,197.988159 221.221329,198.546387 
	C219.341492,199.115158 220.158859,200.112915 222.206726,200.687775 
z"/>
<path fill="#000000" opacity="1.000000" stroke="none" 
	d="
M231.039474,183.677887 
	C233.941574,183.748581 234.847107,185.349594 234.086334,187.333176 
	C233.440964,189.015884 233.383224,190.782349 232.876617,192.664917 
	C228.284103,192.485611 226.598801,187.920914 223.033615,186.475204 
	C220.979965,187.115173 221.056000,189.485962 219.492630,190.483231 
	C218.016266,191.424988 216.970551,193.206177 214.668030,192.545776 
	C214.489777,192.162613 214.007233,191.533051 214.140244,191.349487 
	C215.841965,189.000885 210.234406,185.356491 215.245544,183.906738 
	C217.852676,183.152527 220.574097,182.986069 223.262161,182.054550 
	C225.255768,181.363663 227.819382,184.308380 231.039474,183.677887 
z"/>
<path fill="#000000" opacity="1.000000" stroke="none" 
	d="
M267.269409,99.643036 
	C265.794922,100.649216 264.417816,101.255913 263.228638,102.120911 
	C259.378113,104.921745 256.062805,104.233154 253.654678,100.081184 
	C253.016907,98.981598 252.563904,97.787384 253.741180,97.003212 
	C256.153778,95.396187 257.060974,92.632416 259.570770,89.473717 
	C260.583801,94.757988 264.990326,96.112022 267.269409,99.643036 
z"/>
<path fill="#000000" opacity="1.000000" stroke="none" 
	d="
M377.838135,104.381012 
	C375.272980,101.368515 372.985382,98.601555 370.625916,95.747650 
	C376.235718,94.646072 377.758820,95.747009 383.881775,105.247665 
	C381.710114,106.988693 379.929626,105.541344 377.838135,104.381012 
z"/>
<path fill="#000000" opacity="1.000000" stroke="none" 
	d="
M412.676514,165.153290 
	C413.097870,166.753159 414.068115,167.872849 413.489319,169.275574 
	C409.977905,168.670853 409.977905,168.670853 405.624359,156.296280 
	C410.185547,156.488037 411.690887,158.332993 412.676514,165.153290 
z"/>
<path fill="#000000" opacity="1.000000" stroke="none" 
	d="
M282.892151,94.025681 
	C284.068054,92.909737 284.249725,91.354897 286.014160,90.797638 
	C287.248383,92.349846 288.550018,93.986885 289.940765,95.735977 
	C288.981018,97.935349 287.550720,99.648827 285.325439,101.798027 
	C285.220825,98.570663 278.929810,98.680725 282.892151,94.025681 
z"/>
</svg>